<svg width="20" height="10" fill="none" xmlns="http://www.w3.org/2000/svg">
    <path d="M0 10V8.687c0-.61.31-1.1.927-1.469.618-.367 1.42-.551 2.406-.551.18 0 .354.003.521.01.167.007.327.024.48.052-.195.278-.34.577-.438.896-.097.32-.146.66-.146 1.02V10H0Zm5 0V8.646c0-.903.462-1.632 1.386-2.188.923-.555 2.128-.833 3.614-.833 1.5 0 2.708.278 3.625.833C14.542 7.014 15 7.743 15 8.646V10H5Zm11.25 0V8.646a3.73 3.73 0 0 0-.136-1.021 3.252 3.252 0 0 0-.406-.896c.153-.028.31-.045.47-.052.159-.007.322-.01.489-.01 1 0 1.805.184 2.416.551.611.369.917.858.917 1.47V10h-3.75ZM3.333 5.833c-.458 0-.85-.163-1.176-.49a1.603 1.603 0 0 1-.49-1.176c0-.473.163-.868.49-1.188.326-.32.718-.479 1.176-.479.473 0 .868.16 1.188.48.32.319.479.714.479 1.187 0 .458-.16.85-.48 1.176-.319.327-.714.49-1.187.49Zm13.334 0c-.459 0-.851-.163-1.178-.49A1.604 1.604 0 0 1 15 4.167c0-.473.163-.868.49-1.188.326-.32.718-.479 1.177-.479.472 0 .868.16 1.187.48.32.319.48.714.48 1.187 0 .458-.16.85-.48 1.176-.32.327-.715.49-1.187.49ZM10 5a2.41 2.41 0 0 1-1.77-.73A2.41 2.41 0 0 1 7.5 2.5c0-.708.243-1.302.73-1.782A2.43 2.43 0 0 1 10 0c.708 0 1.302.24 1.78.718.48.48.72 1.074.72 1.782 0 .694-.24 1.285-.72 1.77-.478.487-1.072.73-1.78.73Z"
          fill="#69E0EE"/>
</svg>
